# Blender 3.5.1
# www.blender.org
o solid_Dodecahedron
v 0.000000 1.309017 -0.500000
v 0.000000 1.309017 0.500000
v 0.809017 0.809017 0.809017
v 1.309017 0.500000 0.000000
v 0.809017 0.809017 -0.809017
v 0.500000 0.000000 -1.309017
v -0.500000 0.000000 -1.309017
v -0.809017 0.809017 -0.809017
v -1.309017 0.500000 0.000000
v -0.809017 0.809017 0.809017
v -1.309017 -0.500000 0.000000
v -0.809017 -0.809017 -0.809017
v 0.000000 -1.309017 -0.500000
v 0.000000 -1.309017 0.500000
v -0.809017 -0.809017 0.809017
v -0.500000 0.000000 1.309017
v 0.500000 0.000000 1.309017
v 0.809017 -0.809017 0.809017
v 1.309017 -0.500000 0.000000
v 0.809017 -0.809017 -0.809017
vn 0.5257 0.8507 -0.0000
vn -0.0000 0.5257 -0.8507
vn -0.5257 0.8507 -0.0000
vn -0.8507 -0.0000 -0.5257
vn -0.5257 -0.8507 -0.0000
vn -0.8507 -0.0000 0.5257
vn -0.0000 -0.5257 0.8507
vn 0.8507 -0.0000 0.5257
vn -0.0000 0.5257 0.8507
vn -0.0000 -0.5257 -0.8507
vn 0.8507 -0.0000 -0.5257
vn 0.5257 -0.8507 -0.0000
vt 0.259742 0.763824
vt 0.358722 0.617986
vt 0.457702 0.763824
vt 0.481068 0.617986
vt 0.419895 0.999796
vt 0.580047 0.763824
vt 0.641220 0.853957
vt 0.297549 0.999796
vt 0.221936 0.999796
vt 0.740199 0.999796
vt 0.099590 0.999796
vt 0.900352 0.763824
vt 0.839179 0.853957
vt 0.061784 0.763824
vt 0.038418 0.617986
vt 0.999331 0.617986
vt 0.160763 0.617986
vt 0.198570 0.382014
vt 0.320915 0.382014
vt 0.099590 0.236176
vt 0.900352 0.000204
vt 0.160763 0.146042
vt 0.000611 0.382014
vt 0.938159 0.236176
vt 0.961524 0.382014
vt 0.839179 0.382014
vt 0.740199 0.236176
vt 0.778006 0.000204
vt 0.259742 0.000204
vt 0.702393 0.000204
vt 0.358722 0.146042
vt 0.580047 0.000204
vt 0.419895 0.236176
vt 0.542240 0.236176
vt 0.518874 0.382014
vt 0.641220 0.382014
vt 0.679027 0.617986
vt 0.801372 0.617986
s 0
f 1/1/1 3/3/1 4/5/1
f 1/1/2 6/11/2 7/14/2
f 1/1/3 9/18/3 10/19/3
f 11/20/4 8/17/4 7/15/4
f 11/21/5 13/26/5 14/27/5
f 11/22/6 16/31/6 10/19/6
f 17/34/7 15/30/7 14/27/7
f 17/35/8 19/37/8 4/6/8
f 17/35/9 2/2/9 10/19/9
f 20/38/10 12/25/10 7/16/10
f 20/38/11 5/10/11 4/7/11
f 20/38/12 18/36/12 14/27/12
f 1/1/1 2/2/1 3/3/1
f 1/1/1 4/5/1 5/8/1
f 1/1/2 5/9/2 6/11/2
f 1/1/2 7/14/2 8/17/2
f 1/1/3 8/17/3 9/18/3
f 1/1/3 10/19/3 2/2/3
f 11/20/4 9/18/4 8/17/4
f 11/20/4 7/15/4 12/23/4
f 11/21/5 12/24/5 13/26/5
f 11/21/5 14/27/5 15/28/5
f 11/22/6 15/29/6 16/31/6
f 11/22/6 10/19/6 9/18/6
f 17/34/7 16/32/7 15/30/7
f 17/34/7 14/27/7 18/36/7
f 17/35/8 18/36/8 19/37/8
f 17/35/8 4/6/8 3/4/8
f 17/35/9 3/4/9 2/2/9
f 17/35/9 10/19/9 16/33/9
f 20/38/10 13/26/10 12/25/10
f 20/38/10 7/16/10 6/12/10
f 20/38/11 6/13/11 5/10/11
f 20/38/11 4/7/11 19/37/11
f 20/38/12 19/37/12 18/36/12
f 20/38/12 14/27/12 13/26/12
