# Blender 4.1.0
# www.blender.org
o Triakis_Tetrahedron
v 0.636396 0.636396 0.636396
v 0.636396 -0.636396 -0.636396
v -0.636396 0.636396 -0.636396
v -0.636396 -0.636396 0.636396
v 1.060660 0.335423 -0.335423
v 0.818914 0.093677 -0.818914
v 0.335423 0.335423 -1.060660
v 0.093677 0.818914 -0.818914
v 0.335423 1.060660 -0.335423
v 0.818914 0.818914 -0.093677
v -0.093677 0.818914 0.818914
v -0.335423 1.060660 0.335423
v -0.818914 0.818914 0.093677
v -1.060660 0.335423 0.335423
v -0.818914 0.093677 0.818914
v -0.335423 0.335423 1.060660
v 0.335423 -0.335423 1.060660
v 0.093677 -0.818914 0.818914
v 0.335423 -1.060660 0.335423
v 0.818914 -0.818914 0.093677
v 1.060660 -0.335423 0.335423
v 0.818914 -0.093677 0.818914
v -0.335423 -1.060660 -0.335423
v -0.818914 -0.818914 -0.093677
v -1.060660 -0.335423 -0.335423
v -0.818914 -0.093677 -0.818914
v -0.335423 -0.335423 -1.060660
v -0.093677 -0.818914 -0.818914
v 0.577169 0.577169 -0.577169
v -0.577169 0.577169 0.577169
v 0.577169 -0.577169 0.577169
v -0.577169 -0.577169 -0.577169
vn 0.9045 -0.3015 -0.3015
vn -0.9045 -0.3015 0.3015
vn 0.3015 0.9045 0.3015
vn 0.3015 -0.3015 -0.9045
vn -0.3015 -0.9045 0.3015
vn -0.3015 0.3015 -0.9045
vn -0.3015 0.9045 -0.3015
vn -0.3015 -0.3015 0.9045
vn 0.3015 0.3015 0.9045
vn 0.3015 -0.9045 -0.3015
vn -0.9045 0.3015 -0.3015
vn -0.5774 0.5774 0.5774
vn 0.5774 -0.5774 0.5774
vn -0.5774 -0.5774 -0.5774
vn 0.9045 0.3015 0.3015
vn 0.5774 0.5774 -0.5774
vt 0.483666 0.378519
vt 0.284147 0.338344
vt 0.440978 0.208630
vt 0.256900 0.855041
vt 0.453435 0.802167
vt 0.370774 0.988147
vt 0.917582 0.502085
vt 0.773524 0.358318
vt 0.975918 0.336914
vt 0.281572 0.106396
vt 0.229095 0.303037
vt 0.109362 0.138460
vt 0.391519 0.543961
vt 0.456486 0.736836
vt 0.265735 0.665874
vt 0.125698 0.522980
vt 0.032608 0.341994
vt 0.231828 0.383621
vt 0.640633 0.149019
vt 0.844014 0.156628
vt 0.710053 0.309847
vt 0.710352 0.659019
vt 0.521879 0.735828
vt 0.580869 0.541041
vt 0.715421 0.388341
vt 0.749341 0.589017
vt 0.224606 0.597108
vt 0.252324 0.395481
vt 0.718244 0.790856
vt 0.597490 0.954685
vt 0.546236 0.757721
vt 0.808367 0.496984
vt 0.858557 0.594118
vt 0.487037 0.597162
vt 0.485351 0.487841
vt 0.315925 0.763008
vt 0.206710 0.757907
vt 0.389834 0.434640
vt 0.521096 0.207395
vt 0.681851 0.332213
vt 0.331763 0.203529
vt 0.390788 0.111497
vt 0.340597 0.014363
vt 0.449813 0.019464
vt 0.500003 0.116597
vt 0.967772 0.599219
vt 0.908747 0.691252
vt 0.799532 0.686151
vt 0.579184 0.431720
vt 0.147685 0.849940
vt 0.097494 0.752806
vt 0.156519 0.660774
vt 0.470834 0.944081
vt 0.887725 0.272292
vt 0.097494 0.247149
vt 0.023296 0.484667
vt 0.167672 0.295089
vt 0.724234 0.078557
vt 0.818670 0.297340
vt 0.663180 0.757654
vt 0.162772 0.506938
vt 0.729436 0.899616
vt 0.495443 0.854541
vt 0.630102 0.198929
s 0
f 12/7/3 1/8/3 9/9/3
f 14/47/12 15/48/12 30/33/12
f 16/22/8 4/23/8 17/24/8
f 7/10/4 2/11/4 27/12/4
f 25/4/2 4/5/2 14/6/2
f 25/4/14 26/50/14 32/37/14
f 23/27/10 2/28/10 19/13/10
f 5/39/15 1/40/15 21/1/15
f 21/1/1 2/2/1 5/3/1
f 19/13/5 4/14/5 23/15/5
f 5/3/16 6/41/16 29/42/16
f 14/29/11 3/30/11 25/31/11
f 27/16/6 3/17/6 7/18/6
f 17/24/9 1/25/9 16/26/9
f 17/24/13 18/34/13 31/35/13
f 9/19/7 3/20/7 12/21/7
f 11/32/12 12/7/12 30/33/12
f 23/15/14 24/36/14 32/37/14
f 20/38/1 2/2/1 21/1/1
f 6/41/16 7/10/16 29/42/16
f 7/10/16 8/43/16 29/42/16
f 8/43/16 9/44/16 29/42/16
f 9/44/16 10/45/16 29/42/16
f 10/45/16 5/3/16 29/42/16
f 12/7/12 13/46/12 30/33/12
f 13/46/12 14/47/12 30/33/12
f 15/48/12 16/26/12 30/33/12
f 16/26/12 11/32/12 30/33/12
f 18/34/13 19/13/13 31/35/13
f 19/13/13 20/38/13 31/35/13
f 20/38/13 21/1/13 31/35/13
f 21/1/13 22/49/13 31/35/13
f 22/49/13 17/24/13 31/35/13
f 24/36/14 25/4/14 32/37/14
f 26/50/14 27/51/14 32/37/14
f 27/51/14 28/52/14 32/37/14
f 28/52/14 23/15/14 32/37/14
f 2/2/1 6/41/1 5/3/1
f 24/36/2 4/5/2 25/4/2
f 4/5/2 15/53/2 14/6/2
f 11/32/3 1/8/3 12/7/3
f 1/8/3 10/54/3 9/9/3
f 6/41/4 2/11/4 7/10/4
f 2/11/4 28/55/4 27/12/4
f 18/34/5 4/14/5 19/13/5
f 4/14/5 24/36/5 23/15/5
f 26/56/6 3/17/6 27/16/6
f 3/17/6 8/57/6 7/18/6
f 8/58/7 3/20/7 9/19/7
f 3/20/7 13/59/7 12/21/7
f 15/60/8 4/23/8 16/22/8
f 4/23/8 18/34/8 17/24/8
f 22/49/9 1/25/9 17/24/9
f 1/25/9 11/32/9 16/26/9
f 28/61/10 2/28/10 23/27/10
f 2/28/10 20/38/10 19/13/10
f 13/62/11 3/30/11 14/29/11
f 3/30/11 26/63/11 25/31/11
f 10/64/15 1/40/15 5/39/15
f 1/40/15 22/49/15 21/1/15