# Blender 3.5.1
# www.blender.org
mtllib D4.mtl
o solid_Tetrahedron
v 0.353553 0.353553 0.353553
v 0.353553 -0.353553 -0.353553
v -0.353553 0.353553 -0.353553
v -0.353553 -0.353553 0.353553
vn 0.5774 0.5774 -0.5774
vn 0.5774 -0.5774 0.5774
vn -0.5774 0.5774 0.5774
vn -0.5774 -0.5774 -0.5774
vt 0.750000 0.500000
vt 0.500000 0.000000
vt 1.000000 0.000000
vt 0.500000 1.000000
vt 0.000000 0.000000
vt 0.250000 0.500000
s 0
usemtl Material.001
f 1/1/1 2/2/1 3/3/1
f 2/2/2 1/1/2 4/6/2
f 3/4/3 4/6/3 1/1/3
f 4/6/4 3/5/4 2/2/4
